<svg id="Layer_1" data-name="Layer 1" xmlns="http://www.w3.org/2000/svg" xmlns:xlink="http://www.w3.org/1999/xlink" viewBox="0 0 398.904 442.984"><defs><style>.cls-1,.cls-5,.cls-6,.cls-9{fill:none;}.cls-2,.cls-4,.cls-8{fill:#fff;}.cls-2{opacity:0.7;}.cls-13,.cls-16,.cls-2,.cls-21{isolation:isolate;}.cls-3{fill:#825ef6;}.cls-10,.cls-11,.cls-16,.cls-22,.cls-23,.cls-4,.cls-9{stroke:#263238;}.cls-10,.cls-11,.cls-16,.cls-22,.cls-4,.cls-6,.cls-9{stroke-linecap:round;stroke-linejoin:round;}.cls-5,.cls-6{stroke:#fff;}.cls-23,.cls-5{stroke-miterlimit:10;}.cls-7{fill:#263238;}.cls-10,.cls-14,.cls-16{fill:#42d3d8;}.cls-11,.cls-13{fill:#92e3a9;}.cls-12{clip-path:url(#clip-path);}.cls-13{opacity:0.4;}.cls-15{clip-path:url(#clip-path-2);}.cls-16,.cls-21{fill-opacity:0.7;}.cls-16{opacity:0.15;}.cls-17{clip-path:url(#clip-path-3);}.cls-18{opacity:0.2;}.cls-19,.cls-22{fill:#999;}.cls-20{clip-path:url(#clip-path-4);}.cls-21{opacity:0.3;}.cls-23{fill:#bfbfbf;}.cls-24{clip-path:url(#clip-path-5);}</style><clipPath id="clip-path" transform="translate(0 0.001)"><path class="cls-1" d="M256.872,209.835c-3.54-1.22-5.77-8.51-7.48-16.41-1.18-5.47-2.12-11.23-3.07-15.47a30.3,30.3,0,0,0-1.41-4.87l8.7-29.45c5.33,1.98,10.43,38.13,12.45,50.63C268.152,207.185,263.822,212.205,256.872,209.835Z"/></clipPath><clipPath id="clip-path-2" transform="translate(0 0.001)"><path class="cls-1" d="M179.5,190.755s-.171-44.613,8.1-51.845c0,0,12.653-7.189,36.916-5.3a66.426,66.426,0,0,1,28.743,9.2c6.774,14.533-5.077,41.517-16.291,49.1l-10.742,11.3s1.873,7.183-9.126,10.366C194.519,220.117,164.177,206.943,179.5,190.755Z"/></clipPath><clipPath id="clip-path-3" transform="translate(0 0.001)"><path class="cls-1" d="M192.082,151.755c-1.19,10.5-6.53,16.87-8.7,16.88-1.42,0-1.39-5.14-1.39-5.14-4.8.9-14.68,4.34-21.46,6.82l-.6.22c-2.15.79-3.95,1.47-5.1,1.91-.36.13-.65.24-.88.33l-.52.2c1.51,2,2.97,4.01,4.39,6.05,5.24,7.5,10.03,15.25,15.69,23.2,4.66,6.55,2.97,9.9,0,13.01,0,0-8.11,7.7-10.48,7.14s-8.91-2.73-8.71-4.31,2.77-.6,2.77-.6a8.631,8.631,0,0,1,.4-2.23c.39-1.33,5.45-2.01,5.45-2.01a11.755,11.755,0,0,1,2.45-4.28s-15.58-16.21-23.17-21.55c-5.59-3.94-15.51-16.77-11.76-20.3,6.95-6.52,48.17-28.21,59.35-28.1C189.812,139,193.272,141.255,192.082,151.755Z"/></clipPath><clipPath id="clip-path-4" transform="translate(0 0.001)"><rect class="cls-1" x="60.332" y="222.445" width="21.56" height="206.44"/></clipPath><clipPath id="clip-path-5" transform="translate(0 0.001)"><rect class="cls-1" x="314.332" y="222.445" width="21.56" height="206.44"/></clipPath></defs><g id="Background_Simple" data-name="Background Simple"><path class="cls-2" d="M16.043,137.971s-27.877,71.987,11.3,144.5S147.219,393.276,211.812,426.022s131.661,16.8,163.534-36.837-11.845-91.929-11.9-168.418S374.893,124.025,333.483,59.4s-143.059-78.925-219.9-31S16.043,137.971,16.043,137.971Z" transform="translate(0 0.001)"/><path class="cls-3" d="M383.526,179.814c-18.192-20.118-48.67-22.371-72.372-35.558-40.79-22.7-56.6-74.391-93.712-102.709-23.432-17.883-55.092-24.814-83.4-20.894-40.19,5.564-78.006,32.5-89.357,71.962a99.774,99.774,0,0,0-3.44,35.411c1.816,23.55,6.882,47.4,2.1,70.533-5.267,25.493-21.855,47.017-31.765,71.088C-.758,299.615-2.456,333.252,2.819,365.228c3.6,21.818,10.776,43.845,25.76,60.109,1.131,1.228,2.311,2.4,3.513,3.548H195.7c10.264-13.089,18.045-28.58,27.074-42.324,22.721-34.585,59.1-59.243,98.828-70.809,17.8-5.182,37.082-8.265,51.384-20.059,14.716-12.136,21.475-31.5,24.4-50.344C400.933,222.526,399.012,196.945,383.526,179.814Z" transform="translate(0 0.001)"/><path class="cls-3" d="M383.526,179.814c-18.192-20.118-48.67-22.371-72.372-35.558-40.79-22.7-56.6-74.391-93.712-102.709-23.432-17.883-55.092-24.814-83.4-20.894-40.19,5.564-78.006,32.5-89.357,71.962a99.774,99.774,0,0,0-3.44,35.411c1.816,23.55,6.882,47.4,2.1,70.533-5.267,25.493-21.855,47.017-31.765,71.088C-.758,299.615-2.456,333.252,2.819,365.228c3.6,21.818,10.776,43.845,25.76,60.109,1.131,1.228,2.311,2.4,3.513,3.548H195.7c10.264-13.089,18.045-28.58,27.074-42.324,22.721-34.585,59.1-59.243,98.828-70.809,17.8-5.182,37.082-8.265,51.384-20.059,14.716-12.136,21.475-31.5,24.4-50.344C400.933,222.526,399.012,196.945,383.526,179.814Z" transform="translate(0 0.001)"/></g><g id="Chair"><polyline class="cls-4" points="153.123 322.219 138.229 427.12 132.663 427.12 140.89 322.219"/><polyline class="cls-4" points="199.663 322.219 214.558 427.12 220.123 427.12 211.896 322.219"/><polyline class="cls-4" points="118.123 322.219 103.229 427.12 97.663 427.12 105.89 322.219"/><polyline class="cls-4" points="163.663 322.219 178.558 427.12 184.123 427.12 175.896 322.219"/><path class="cls-4" d="M208.427,318.419H105.853a16.388,16.388,0,0,1-16.388-16.388h0a4.527,4.527,0,0,1,4.527-4.527h126.3a4.527,4.527,0,0,1,4.527,4.527h0a16.388,16.388,0,0,1-16.388,16.388Z" transform="translate(0 0.001)"/><line class="cls-4" x1="91.802" y1="310.464" x2="125.879" y2="310.464"/><path class="cls-4" d="M131.428,297.5c-5.275,0-1.582,20.915,12.4,20.915" transform="translate(0 0.001)"/><line class="cls-4" x1="131.575" y1="310.464" x2="140.385" y2="310.464"/><line class="cls-4" x1="145.396" y1="310.464" x2="149.993" y2="310.464"/><line class="cls-4" x1="157.141" y1="310.464" x2="222.48" y2="310.464"/><polyline class="cls-4" points="91.802 293.878 84.209 239.933 91.69 239.933 99.506 297.501"/><polyline class="cls-4" points="118.068 293.878 110.475 239.933 117.956 239.933 125.772 297.501"/><polyline class="cls-4" points="144.334 293.878 136.741 239.933 144.222 239.933 152.038 297.501"/><path class="cls-4" d="M143.32,239.284H82.2a9.269,9.269,0,0,1-8.863-7.727l-3.9-26.488a6.515,6.515,0,0,1,6.589-7.728h61.117a9.271,9.271,0,0,1,8.862,7.728l3.9,26.488a6.508,6.508,0,0,1-6.588,7.727Z" transform="translate(0 0.001)"/><line class="cls-4" x1="141.802" y1="236.516" x2="143.681" y2="236.516"/><line class="cls-4" x1="128.945" y1="236.516" x2="138.143" y2="236.516"/><path class="cls-4" d="M72.939,208.819l3.144,20.822a8.079,8.079,0,0,0,7.99,6.874h42.8" transform="translate(0 0.001)"/><line class="cls-4" x1="72.199" y1="203.92" x2="72.587" y2="206.488"/><line class="cls-4" x1="19.363" y1="427.12" x2="374.044" y2="427.12"/></g><g id="Bubble"><path class="cls-5" d="M154.75,85.4a4.9,4.9,0,0,1-.225-1.609,9.293,9.293,0,0,1,2.133-5.911,10.572,10.572,0,0,0,2.357-6.847c0-1.87-.748-2.582-2.058-2.582s-2.058.712-2.058,2.582v2.844h-3.887V71.29c0-4.19,2.058-6.585,6.061-6.585s6.062,2.4,6.062,6.585c0,2.806-.749,4.826-2.769,7.52-1.609,2.17-2.1,3.443-2.1,5.126a6.449,6.449,0,0,0,.149,1.459Zm3.778,1.834V91.2h-3.965V87.229Z" transform="translate(0 0.001)"/><path class="cls-6" d="M173.842,104.247l8.946,4.911-5.365-9.835a25.053,25.053,0,0,0,9.55-14.409" transform="translate(0 0.001)"/><path class="cls-6" d="M161.482,105.531a32.95,32.95,0,0,0,9.893-2.639" transform="translate(0 0.001)"/><path class="cls-6" d="M128.294,80.115c0,14.141,13.253,25.606,29.6,25.606" transform="translate(0 0.001)"/><path class="cls-6" d="M133.75,65.3a25.148,25.148,0,0,0-2.262,3.236" transform="translate(0 0.001)"/><path class="cls-6" d="M187.5,80.115c0-14.142-13.253-25.607-29.6-25.607a32.094,32.094,0,0,0-20.383,7.041" transform="translate(0 0.001)"/></g><g id="Character"><path class="cls-7" d="M192.329,188.753c-28.414,7.285-39.311,27.818-40.8,45.1-1.791,20.835,15.42,75.935,15.615,83.414.968,37.048,12.668,54.908,14.77,83.149h27.724s3.415-74.637,5.516-83.149,9.9-53.651,11.694-77.466c2.813-37.413-9.731-49.2-9.731-49.2C205.125,180.577,192.329,188.753,192.329,188.753Z" transform="translate(0 0.001)"/><path class="cls-6" d="M210.612,232.342a53.355,53.355,0,0,1-15.333,11.2s1.522,60.726-.382,66.264-4.286,11.9,2.048,90.607" transform="translate(0 0.001)"/><path class="cls-8" d="M193.4,394.27s5.539-3.956,17.011-3.165c0,0,.831,13.752,2.394,17.755s9.784,10.925,11.307,12.113,1.527,5.341,1.527,5.341h-34.81a110.1,110.1,0,0,1,2.769-17.657Z" transform="translate(0 0.001)"/><path class="cls-9" d="M193.4,394.27s5.539-3.956,17.011-3.165c0,0,.831,13.752,2.394,17.755s9.784,10.925,11.307,12.113,1.527,5.341,1.527,5.341h-34.81a110.1,110.1,0,0,1,2.769-17.657Z" transform="translate(0 0.001)"/><path class="cls-9" d="M200.587,396.05s.823,12.659,2.785,15.956a23.316,23.316,0,0,0,3.86,5.011" transform="translate(0 0.001)"/><path class="cls-10" d="M208.235,418.8s1.748,2.176,3.693,2.473,12.187-.3,12.187-.3l-4.177-3.611S211.4,415.929,208.235,418.8Z" transform="translate(0 0.001)"/><path class="cls-9" d="M204.576,415.83s7.423-4.266,12.711-1.045" transform="translate(0 0.001)"/><path class="cls-9" d="M202.786,412.934s5.182-4.05,11.294-1.827" transform="translate(0 0.001)"/><path class="cls-9" d="M200.587,408.522s5.576-4.333,11.458-1.573" transform="translate(0 0.001)"/><path class="cls-9" d="M199.829,403.013s6.764-3.638,11.69-.879" transform="translate(0 0.001)"/><path class="cls-10" d="M190.829,426.314v2.571h3.988a7.02,7.02,0,0,1,6.693,0H220.3a13.656,13.656,0,0,0,5.737-1.286l-.4-1.285Z" transform="translate(0 0.001)"/><path class="cls-10" d="M195.817,393.485l.891,5.6s10.449-3.388,16.22-1.187V391S202.179,387.218,195.817,393.485Z" transform="translate(0 0.001)"/><path class="cls-11" d="M193.6,408.657s.033,6.257,3.791,8.347,7.982,4.307,8.442,9.281l-3.045.029s.966-2.7-2.957-4.961-6.112-3.663-7.426-7.23Z" transform="translate(0 0.001)"/><path class="cls-8" d="M180.4,394.27s5.539-3.956,17.011-3.165c0,0,.831,13.752,2.394,17.755s9.784,10.925,11.307,12.113,1.527,5.341,1.527,5.341h-34.81a110.1,110.1,0,0,1,2.769-17.657Z" transform="translate(0 0.001)"/><path class="cls-9" d="M180.4,394.27s5.539-3.956,17.011-3.165c0,0,.831,13.752,2.394,17.755s9.784,10.925,11.307,12.113,1.527,5.341,1.527,5.341h-34.81a110.1,110.1,0,0,1,2.769-17.657Z" transform="translate(0 0.001)"/><path class="cls-9" d="M187.587,396.05s.823,12.659,2.785,15.956a23.316,23.316,0,0,0,3.86,5.011" transform="translate(0 0.001)"/><path class="cls-10" d="M195.235,418.8s1.748,2.176,3.693,2.473,12.187-.3,12.187-.3l-4.177-3.611S198.4,415.929,195.235,418.8Z" transform="translate(0 0.001)"/><path class="cls-9" d="M191.576,415.83s7.423-4.266,12.711-1.045" transform="translate(0 0.001)"/><path class="cls-9" d="M189.786,412.934s5.182-4.05,11.294-1.827" transform="translate(0 0.001)"/><path class="cls-9" d="M187.587,408.522s5.576-4.333,11.458-1.573" transform="translate(0 0.001)"/><path class="cls-9" d="M186.829,403.013s6.764-3.638,11.69-.879" transform="translate(0 0.001)"/><path class="cls-10" d="M177.829,426.314v2.571h3.988a7.02,7.02,0,0,1,6.693,0H207.3a13.656,13.656,0,0,0,5.737-1.286l-.4-1.285Z" transform="translate(0 0.001)"/><path class="cls-10" d="M182.817,393.485l.891,5.6s10.449-3.388,16.22-1.187V391S189.179,387.218,182.817,393.485Z" transform="translate(0 0.001)"/><path class="cls-10" d="M180.6,408.657s.033,6.257,3.791,8.347,7.982,4.307,8.442,9.281l-3.045.029s.966-2.7-2.957-4.961-6.112-3.663-7.426-7.23Z" transform="translate(0 0.001)"/><path class="cls-6" d="M161.312,229.3c-8.494,14.5,5.22,69.362,9.7,84.131,0,0-.543,20.152,2.622,30.965s9.179,43.409,9.179,43.409" transform="translate(0 0.001)"/><path class="cls-6" d="M206.093,323.985s3.067-.139,6.065-3.429" transform="translate(0 0.001)"/><path class="cls-6" d="M178.928,316.379s-.528,5.231,5.274,7.6" transform="translate(0 0.001)"/><path class="cls-6" d="M198.587,245.127s7.072.527,12.431-3.429" transform="translate(0 0.001)"/><path class="cls-6" d="M181.559,233.217s6.863,2.458,9.5,6.788" transform="translate(0 0.001)"/><path class="cls-6" d="M191.06,243.424s-8.176.163-14.77-3.419" transform="translate(0 0.001)"/><path class="cls-6" d="M204.954,217.87s-3.242,15.916-7.777,20.663" transform="translate(0 0.001)"/><path class="cls-6" d="M181.559,211.624s-3.86,12.32-13.444,10.816" transform="translate(0 0.001)"/><path class="cls-6" d="M221.228,215s1.744,10.06,4.645,10.072" transform="translate(0 0.001)"/><path class="cls-8" d="M256.872,209.835c-3.54-1.22-5.77-8.51-7.48-16.41-1.18-5.47-2.12-11.23-3.07-15.47a30.3,30.3,0,0,0-1.41-4.87l8.7-29.45c5.33,1.98,10.43,38.13,12.45,50.63C268.152,207.185,263.822,212.205,256.872,209.835Z" transform="translate(0 0.001)"/><g class="cls-12"><path class="cls-13" d="M254.082,190.805a4.42,4.42,0,0,1-4.69,2.62c-1.18-5.47-2.12-11.23-3.07-15.47l4-7.32S257.242,184.085,254.082,190.805Z" transform="translate(0 0.001)"/></g><path class="cls-9" d="M256.872,209.835c-3.54-1.22-5.77-8.51-7.48-16.41-1.18-5.47-2.12-11.23-3.07-15.47a30.3,30.3,0,0,0-1.41-4.87l8.7-29.45c5.33,1.98,10.43,38.13,12.45,50.63C268.152,207.185,263.822,212.205,256.872,209.835Z" transform="translate(0 0.001)"/><path class="cls-7" d="M245.85,95.185c5.879,6.53,12.209,36.371,6.783,49.213s-52.268,10.309-56.97,4.883,4.7-15.658,2.893-24.83-8.4-32.86,12.712-38.2A36.819,36.819,0,0,1,245.85,95.185Z" transform="translate(0 0.001)"/><path class="cls-14" d="M179.5,190.755s-.171-44.613,8.1-51.845c0,0,12.653-7.189,36.916-5.3a66.426,66.426,0,0,1,28.743,9.2c6.774,14.533-5.077,41.517-16.291,49.1l-10.742,11.3s1.873,7.183-9.126,10.366C194.519,220.117,164.177,206.943,179.5,190.755Z" transform="translate(0 0.001)"/><g class="cls-15"><path class="cls-16" d="M251.5,170.885c-3.53,9.15-9.11,17.36-14.54,21.03l-10.74,11.3a6.925,6.925,0,0,1-.77,4.67c-18.02,6.34-18.25-.97-18.25-.97,6.49,1.01,20.06-8.99,20.06-8.99s.11-2.17-4.48-4.72-16.53,1.56-16.53,1.56c5.77,5.54,10.64,4.94,8.64,6.78s-7.79-1.03-7.79-1.03-13.35-4.76-13.55,1.03,3.15,7.86,3.15,7.86a34.275,34.275,0,0,1-21-12.45,15.037,15.037,0,0,1,3.8-6.2,279.035,279.035,0,0,1,1.92-32.37l9.64,8.53c-.71.64,0,3.95,0,3.95s4.47,9.26,10.66,13.5,21.5-1.67,21.5-1.67c4.34,2.57,10.63,1.67,10.63,1.67l3.11-8.35C244.192,179.705,251.142,171.315,251.5,170.885Z" transform="translate(0 0.001)"/></g><path class="cls-9" d="M179.5,190.755s-.171-44.613,8.1-51.845c0,0,12.653-7.189,36.916-5.3a66.426,66.426,0,0,1,28.743,9.2c6.774,14.533-5.077,41.517-16.291,49.1l-10.742,11.3s1.873,7.183-9.126,10.366C194.519,220.117,164.177,206.943,179.5,190.755Z" transform="translate(0 0.001)"/><path class="cls-4" d="M203.982,133.185c-.723,4.883,9.229,29.092,21.342,30.927,17.506,2.653,20.191-18.238,18.563-23.122s-9.778-.945-6.921-13.923S203.982,133.185,203.982,133.185Z" transform="translate(0 0.001)"/><path class="cls-7" d="M199.4,119.134s3.49,11.753,2.5,19.863-3.137,32.346,2.458,43.74l1.894,1.628a65.831,65.831,0,0,1-1.894-18.267s1.085,9.223,1.894,13.383a51.048,51.048,0,0,1,0-16.639c1.531-8.862,6.234-25.5,3.34-36.9S199.4,119.134,199.4,119.134Z" transform="translate(0 0.001)"/><path class="cls-7" d="M250.473,116.831s11.949,28.079,8.568,46.479-14.747,15.436-14.747,15.436,8.462,1.709,11.9-10.94-4.665-35.644-4.665-35.644Z" transform="translate(0 0.001)"/><path class="cls-7" d="M229.664,139s-2.9,6.663-7.507,8.472-7.169,1.063-9.21-4.236S229.664,139,229.664,139Z" transform="translate(0 0.001)"/><path class="cls-4" d="M233.281,135.653a12.028,12.028,0,0,1-4.822,6.149c-10.919,7.7-16.338,6.933-24.477-8.621-2.49-4.758-1.047-9.278-2.621-13.042-4.16-9.948-1.213-20.975,4.189-26.807,13.256-14.312,35.313-6.533,38.583,8.681,2.08,9.676-2.153,15.458-5.742,22.729" transform="translate(0 0.001)"/><path class="cls-9" d="M211.765,112.744a8.918,8.918,0,0,1,9.752,1.248" transform="translate(0 0.001)"/><path class="cls-9" d="M206.7,114.553c1.447,3.707.852,9.422-1.176,11.3-2.91,2.7.272,4.793,2.623,4.793" transform="translate(0 0.001)"/><path class="cls-7" d="M218.812,119.052c.087,1.262-.379,2.322-1.042,2.368s-1.27-.94-1.357-2.2.379-2.322,1.041-2.368S218.724,117.785,218.812,119.052Z" transform="translate(0 0.001)"/><path class="cls-7" d="M205.326,119.052c.088,1.262-.379,2.322-1.041,2.368s-1.27-.94-1.357-2.2.379-2.322,1.041-2.368S205.239,117.785,205.326,119.052Z" transform="translate(0 0.001)"/><path class="cls-9" d="M199.668,113.992s.625-2.549,4.459-1.084" transform="translate(0 0.001)"/><path class="cls-9" d="M209.589,134.538c2.17-.724,4.431,2.984,2.8,4.25s-2.08-3.617-2.08-3.617" transform="translate(0 0.001)"/><path class="cls-7" d="M223.969,101.048c4.636,3.468-2.452,10.129,5.816,18.086l1.688,3.2s-.612-6.548,3.854-5.657,3.064,15.24,3.064,15.24l4.54-6.511s14.41-27.763-4.54-37.136c-22.913-11.334-31.884,2.044-31.884,2.044-10.249,5.909-11.06,17.3-6.4,25.984,0,0-1.154-7.179,1.79-12.957C204.355,98.516,215.157,94.457,223.969,101.048Z" transform="translate(0 0.001)"/><path class="cls-4" d="M233.884,118.17s3.135-3.979,6.391-3.617,3.014,6.209,1.929,8.048-3.858,7.385-5.667,7.5-2.894-.12-2.653-1.205" transform="translate(0 0.001)"/><path class="cls-7" d="M226.168,99.963s-2.894,7.923-1.086,14.029c0,0-4.7-2.574-5.064-5.468,0,0-.313.216,0,2.411l-2.406-1.45a3.219,3.219,0,0,1-2.658-1.46c-.723-1.434-.6-8.789-.6-8.789s-2.014,7.227-6.819,10.095c0,0,4.233-4.153,4.233-7.2a24.144,24.144,0,0,1-7.638,7.355s-2.683-.46-4.73,2.965c0,0-4.769-9.838,2.5-15.384S226.168,99.963,226.168,99.963Z" transform="translate(0 0.001)"/><path class="cls-9" d="M234.779,133.294s-.9,12.825-6.682,20.421" transform="translate(0 0.001)"/><path class="cls-9" d="M210.512,151.235s8.035,3.663,9.96,4.29a5,5,0,0,1,2.746,2.676" transform="translate(0 0.001)"/><path class="cls-9" d="M242.931,151.691s-6.865,3.134-8.915,3.376S231,158.2,231,158.2" transform="translate(0 0.001)"/><path class="cls-9" d="M217.612,146.572s5.424,4.514,6.508,7.649" transform="translate(0 0.001)"/><path class="cls-8" d="M192.082,151.755c-1.19,10.5-6.53,16.87-8.7,16.88-1.42,0-1.39-5.14-1.39-5.14-4.8.9-14.68,4.34-21.46,6.82l-.6.22c-2.15.79-3.95,1.47-5.1,1.91-.36.13-.65.24-.88.33l-.52.2c1.51,2,2.97,4.01,4.39,6.05,5.24,7.5,10.03,15.25,15.69,23.2,4.66,6.55,2.97,9.9,0,13.01,0,0-8.11,7.7-10.48,7.14s-8.91-2.73-8.71-4.31,2.77-.6,2.77-.6a8.631,8.631,0,0,1,.4-2.23c.39-1.33,5.45-2.01,5.45-2.01a11.755,11.755,0,0,1,2.45-4.28s-15.58-16.21-23.17-21.55c-5.59-3.94-15.51-16.77-11.76-20.3,6.95-6.52,48.17-28.21,59.35-28.1C189.812,139,193.272,141.255,192.082,151.755Z" transform="translate(0 0.001)"/><g class="cls-17"><path class="cls-13" d="M157.822,179.025a25.023,25.023,0,0,1-11.15-3.01c3.36.23,6.76-3.04,6.76-3.04C154.942,174.975,156.4,176.985,157.822,179.025Z" transform="translate(0 0.001)"/></g><path class="cls-9" d="M192.082,151.755c-1.19,10.5-6.53,16.87-8.7,16.88-1.42,0-1.39-5.14-1.39-5.14-4.8.9-14.68,4.34-21.46,6.82l-.6.22c-2.15.79-3.95,1.47-5.1,1.91-.36.13-.65.24-.88.33l-.52.2c1.51,2,2.97,4.01,4.39,6.05,5.24,7.5,10.03,15.25,15.69,23.2,4.66,6.55,2.97,9.9,0,13.01,0,0-8.11,7.7-10.48,7.14s-8.91-2.73-8.71-4.31,2.77-.6,2.77-.6a8.631,8.631,0,0,1,.4-2.23c.39-1.33,5.45-2.01,5.45-2.01a11.755,11.755,0,0,1,2.45-4.28s-15.58-16.21-23.17-21.55c-5.59-3.94-15.51-16.77-11.76-20.3,6.95-6.52,48.17-28.21,59.35-28.1C189.812,139,193.272,141.255,192.082,151.755Z" transform="translate(0 0.001)"/><path class="cls-9" d="M157.093,217.467a15.756,15.756,0,0,0,4.219.792" transform="translate(0 0.001)"/><path class="cls-9" d="M161.012,213.585a1.328,1.328,0,0,1,0,1.657c-.618,1.041-1.222,1.173-1.222,1.173" transform="translate(0 0.001)"/><path class="cls-9" d="M153.433,172.971s-4.45,4.045-8.9,3.039" transform="translate(0 0.001)"/><path class="cls-9" d="M181.994,163.5s1.368-.338,2.571,1.682" transform="translate(0 0.001)"/><path class="cls-9" d="M226.224,203.217s-22.088,7.454-27.637,1.209" transform="translate(0 0.001)"/><path class="cls-9" d="M183.378,168.632s3.51,3.1,9.453-3.453" transform="translate(0 0.001)"/><path class="cls-9" d="M188.1,177.016s6.586,19.385,21.485,24.528" transform="translate(0 0.001)"/><path class="cls-9" d="M246.84,146.572s-9.025,27.838-25.974,29.438" transform="translate(0 0.001)"/><path class="cls-4" d="M257.268,190.369c-5.453-6.844-26.2-23.207-26.2-23.207l-10.956-21.215s-4.05-3.982-5.151-4.16c-.83-.134-3.591,2.027-3.918,3.837-.182,1,.98,4.946.98,4.946,2.166-.6,1.792-3.262,1.792-3.262l1.308-1.056,1.5,2.225s-4.49,3.915-4.71,5.3c-.142.891.922,2.391.922,2.391s-1.946,3.059-.759,4.951a10.242,10.242,0,0,0,5.029,4.055c4.073,7.227,9.877,9.189,9.877,9.189s23.03,39.622,33.768,35.588" transform="translate(0 0.001)"/><path class="cls-9" d="M217.1,165.179s-1.3-3.08-1.141-4.537" transform="translate(0 0.001)"/><path class="cls-9" d="M216.024,161.717s-1.85-.091-2.26-.69" transform="translate(0 0.001)"/><path class="cls-9" d="M212.828,156.173a22.2,22.2,0,0,1,3.552-2.772" transform="translate(0 0.001)"/><g class="cls-18"><path class="cls-6" d="M224.512,88.478s-4.883,4-3.648,16.109" transform="translate(0 0.001)"/><path class="cls-6" d="M219.859,87.229a27.3,27.3,0,0,0-9.348,9.3,19.2,19.2,0,0,1-8.614,8.054" transform="translate(0 0.001)"/><path class="cls-6" d="M211.018,88.478s-7.473,6.844-10.148,7.43" transform="translate(0 0.001)"/><path class="cls-6" d="M231,92.193s-.857,14.227,4.418,19.63" transform="translate(0 0.001)"/><path class="cls-6" d="M238.391,95.185s.835,11.985,6.521,17.726,11.738,26.076,12.134,33.065" transform="translate(0 0.001)"/><path class="cls-6" d="M244.294,124.085s2.334,7.474,1.411,12.638" transform="translate(0 0.001)"/><path class="cls-6" d="M204.355,137.27s-1.111,13.937-1.639,18.9a61.159,61.159,0,0,0,0,10.5" transform="translate(0 0.001)"/></g></g><rect class="cls-19" x="60.332" y="222.446" width="21.56" height="206.44"/><g class="cls-20"><path class="cls-21" d="M81.892,222.445v35.13a80,80,0,0,1-21.56-13.63v-21.5Z" transform="translate(0 0.001)"/></g><rect class="cls-9" x="60.332" y="222.446" width="21.56" height="206.44"/><path class="cls-22" d="M22.453,208.253v13c0,2.111,21.785,3.822,48.659,3.822s48.659-1.711,48.659-3.822v-13Z" transform="translate(0 0.001)"/><path class="cls-23" d="M119.771,208.253c0,2.111-21.785,3.822-48.659,3.822s-48.659-1.711-48.659-3.822,21.785-3.822,48.659-3.822S119.771,206.142,119.771,208.253Z" transform="translate(0 0.001)"/><polygon class="cls-4" points="99.991 208.63 60.66 211.63 42.233 208.63 42.233 160.405 78.2 158.405 99.991 161.405 99.991 208.63"/><ellipse class="cls-7" cx="80.572" cy="186.675" rx="11.925" ry="11.154" transform="translate(-117.037 138.821) rotate(-53.041)"/><path class="cls-8" d="M84.257,192.959l-2.124.139-.363-2.447-2.584.169-.365,2.5-1.932.126,2.144-13.758,3.081-.2Zm-4.8-4,2.029-.133-1-6.821h-.039Z" transform="translate(0 0.001)"/><polyline class="cls-9" points="60.66 211.63 60.66 164.333 93.099 162.369"/><line class="cls-9" x1="60.66" y1="164.333" x2="42.233" y2="160.405"/><line class="cls-9" x1="36.677" y1="174.572" x2="15.71" y2="174.295"/><line class="cls-9" x1="39.051" y1="156.174" x2="24.809" y2="146.573"/><line class="cls-9" x1="65.556" y1="148.357" x2="65.556" y2="128.304"/><line class="cls-9" x1="90.875" y1="148.357" x2="97.204" y2="136.722"/><line class="cls-9" x1="107.886" y1="167.274" x2="120.515" y2="164.803"/><line class="cls-9" x1="107.886" y1="186.677" x2="120.515" y2="190.809"/><line class="cls-9" x1="34.699" y1="190.809" x2="24.809" y2="194.765"/><g id="Choice_2" data-name="Choice 2"><rect class="cls-19" x="314.332" y="222.446" width="21.56" height="206.44"/><g class="cls-24"><path class="cls-21" d="M335.892,222.445v35.13a80,80,0,0,1-21.56-13.63v-21.5Z" transform="translate(0 0.001)"/></g><rect class="cls-9" x="314.332" y="222.446" width="21.56" height="206.44"/><path class="cls-22" d="M276.453,208.253v13c0,2.111,21.785,3.822,48.659,3.822s48.659-1.711,48.659-3.822v-13Z" transform="translate(0 0.001)"/><path class="cls-23" d="M373.771,208.253c0,2.111-21.785,3.822-48.659,3.822s-48.659-1.711-48.659-3.822,21.785-3.822,48.659-3.822S373.771,206.142,373.771,208.253Z" transform="translate(0 0.001)"/><polygon class="cls-10" points="296.233 208.63 335.565 211.63 353.991 208.63 353.991 160.405 318.024 158.405 296.233 161.405 296.233 208.63"/><path class="cls-7" d="M326.938,187.65A10.4,10.4,0,0,1,315.559,198.3a12.778,12.778,0,0,1-11.379-12.6,10.4,10.4,0,0,1,10.1-10.695,10.175,10.175,0,0,1,1.283.042A12.778,12.778,0,0,1,326.938,187.65Z" transform="translate(0 0.001)"/><path class="cls-8" d="M318.719,182.985v.486c0,1.4-.419,2.24-1.351,2.608v.039a3.009,3.009,0,0,1,1.56,3.032v1.109c0,2.1-1.085,3.137-3.178,2.958l-3.293-.283V179.316l3.16.271C317.787,179.772,318.719,180.885,318.719,182.985Zm-4.169-1.544v3.6l.82.07c.78.067,1.256-.242,1.256-1.332v-.759c0-.972-.325-1.428-1.067-1.492Zm0,5.544v4.184l1.2.1c.7.061,1.085-.238,1.085-1.25v-1.184c0-1.265-.4-1.688-1.352-1.77Z" transform="translate(0 0.001)"/><polyline class="cls-9" points="335.565 211.63 335.565 164.333 303.186 162.369"/><line class="cls-9" x1="335.565" y1="164.333" x2="353.991" y2="160.405"/><line class="cls-9" x1="359.548" y1="174.572" x2="380.515" y2="174.295"/><line class="cls-9" x1="357.174" y1="156.174" x2="371.416" y2="146.573"/><line class="cls-9" x1="330.669" y1="148.357" x2="330.669" y2="128.304"/><line class="cls-9" x1="305.35" y1="148.357" x2="299.02" y2="136.722"/><line class="cls-9" x1="288.339" y1="167.274" x2="275.71" y2="164.803"/><line class="cls-9" x1="288.339" y1="186.677" x2="275.71" y2="190.809"/><line class="cls-9" x1="361.526" y1="190.809" x2="371.416" y2="194.765"/></g></svg>