<svg id="OBJECTS" xmlns="http://www.w3.org/2000/svg" xmlns:xlink="http://www.w3.org/1999/xlink" viewBox="0 0 446.938 310.081"><defs><style>.cls-1{fill:#3c32a3;}.cls-2{fill:#825ef6;}.cls-3{fill:url(#Degradado_sin_nombre_6);}.cls-4{fill:#42d3d8;}.cls-5{fill:url(#Degradado_sin_nombre_8);}</style><linearGradient id="Degradado_sin_nombre_6" x1="166.187" y1="322.267" x2="127.86" y2="371.544" gradientUnits="userSpaceOnUse"><stop offset="0" stop-color="#4223ed"/><stop offset="0.994" stop-color="#825ef6"/></linearGradient><linearGradient id="Degradado_sin_nombre_8" x1="350.137" y1="234.861" x2="330.938" y2="254.974" gradientUnits="userSpaceOnUse"><stop offset="0" stop-color="#42d3d8"/><stop offset="0.994" stop-color="#11afb7"/></linearGradient></defs><path class="cls-1" d="M246.609,118.013a24.481,24.481,0,1,1-24.482,24.481,24.481,24.481,0,0,1,24.482-24.481Zm0-23.046a47.527,47.527,0,1,0,47.527,47.527,47.58,47.58,0,0,0-47.527-47.527Z" transform="translate(-26.531 -94.96)"/><path class="cls-2" d="M143.64,153.975a24.489,24.489,0,1,1-3.256-27.649,11.08,11.08,0,0,0,12.285,3.174l1.131-.433a10.922,10.922,0,0,0,4.546-17.173A47.513,47.513,0,1,0,164,164.718c3.962-7.463-1.652-16.461-10.1-16.526l-.248,0A11.191,11.191,0,0,0,143.64,153.975Z" transform="translate(-26.531 -94.96)"/><path class="cls-2" d="M214.878,263.624l-46.957-46.975a55.328,55.328,0,0,0-78.239,0L42.707,263.624a55.391,55.391,0,0,0,0,78.239L71.1,370.234l18.587,18.587a54.95,54.95,0,0,0,39.119,16.2c.754,0,1.491-.018,2.227-.053a54.9,54.9,0,0,0,36.893-16.149l46.957-46.958a51.512,51.512,0,0,0,4.927-5.663A55.409,55.409,0,0,0,214.878,263.624Zm-31.036,47.2-46.957,46.958a11.188,11.188,0,0,1-1.824,1.473,7.175,7.175,0,0,1-.684.4,2.01,2.01,0,0,1-.386.21,14.73,14.73,0,0,1-1.174.526c-.07.035-.158.053-.228.088,0,0-.07.018-.175.053-.053.017-.106.035-.176.052a3.178,3.178,0,0,1-.543.158c-.071.018-.158.035-.246.053-.123.035-.263.052-.4.087a4.4,4.4,0,0,1-.947.158l-.526.053c-.263.017-.509.035-.772.035h-.035a11.583,11.583,0,0,1-8.048-3.349L94.486,331.571,73.743,310.827a11.451,11.451,0,0,1,0-16.167l46.975-46.975a11.43,11.43,0,0,1,16.167,0l46.957,46.975a11.368,11.368,0,0,1,1.193,14.712A9.291,9.291,0,0,1,183.842,310.827Z" transform="translate(-26.531 -94.96)"/><path class="cls-3" d="M219.805,336.2a51.512,51.512,0,0,1-4.927,5.663l-46.957,46.958a54.9,54.9,0,0,1-36.893,16.149c-.736.035-1.473.053-2.227.053a54.95,54.95,0,0,1-39.119-16.2L71.1,370.234a418.316,418.316,0,0,1,23.391-38.663l26.232,26.214a11.583,11.583,0,0,0,8.048,3.349h.035c.263,0,.509-.018.772-.035l.526-.053c.333-.053.649-.105.947-.158.14-.035.28-.052.4-.087.088-.018.175-.035.246-.053a3.178,3.178,0,0,0,.543-.158c.07-.017.123-.035.176-.052.105-.035.175-.053.175-.053.07-.035.158-.053.228-.088a14.73,14.73,0,0,0,1.174-.526,2.01,2.01,0,0,0,.386-.21,7.175,7.175,0,0,0,.684-.4,11.188,11.188,0,0,0,1.824-1.473l46.957-46.958a9.291,9.291,0,0,0,1.193-1.455l9.381,1.455Z" transform="translate(-26.531 -94.96)"/><path class="cls-1" d="M335.566,263.614l-46.974-46.956a55.311,55.311,0,0,0-78.237,0l-21.21,21.227,25.73,25.729a52.617,52.617,0,0,1,4.933,5.655L241.4,247.7a11.431,11.431,0,0,1,16.174,0l46.956,46.956a11.432,11.432,0,0,1,0,16.174l-46.956,46.956a11.431,11.431,0,0,1-16.174,0l-21.57-21.57c-.017,0-.017-.018-.017-.018l-25.386-25.368a11.366,11.366,0,0,1-3.317-8.405c-2.028-2.149-4.091-4.3-6.1-6.394a10.95,10.95,0,0,0-1.169-1.375l-5.809-5.792c-.206-.206-.412-.43-.619-.636-10.6-10.794-18.94-18.958-18.94-18.958h-.017a55.358,55.358,0,0,0,4.949,72.583l35.115,35.114,11.842,11.86a55.313,55.313,0,0,0,78.237,0l46.974-46.974A55.386,55.386,0,0,0,335.566,263.614Z" transform="translate(-26.531 -94.96)"/><path class="cls-4" d="M457.293,263.607l-46.957-46.94a55.284,55.284,0,0,0-78.239,0l-21.743,21.725,25.215,25.215a56.274,56.274,0,0,1,5.4,6.26L363.133,247.7a11.43,11.43,0,0,1,16.167,0l46.957,46.957a11.451,11.451,0,0,1,0,16.167L379.3,357.785a11.43,11.43,0,0,1-16.167,0l-19.9-19.885c0-.017-.017-.017-.017-.035l-2.262-2.244-24.794-24.794a11.391,11.391,0,0,1-3.314-7.329c-2.35-2.473-4.717-4.91-7.032-7.277a9.547,9.547,0,0,0-1.28-1.561L292.7,282.842l-2.21-2.227-2.069-2.069c-3.928-3.963-6.856-6.873-8.066-8.048l-.613-.631h-.018a55.508,55.508,0,0,0,.018,65.754,54.282,54.282,0,0,0,5.383,6.225l25.232,25.232,10.556,10.556L332.1,388.821a55.287,55.287,0,0,0,78.239,0l46.957-46.975A55.391,55.391,0,0,0,457.293,263.607Z" transform="translate(-26.531 -94.96)"/><path class="cls-5" d="M371.216,244.354a11.33,11.33,0,0,0-8.083,3.349l-22.164,22.164a56.274,56.274,0,0,0-5.4-6.26l-25.215-25.215L332.1,216.667a55.309,55.309,0,0,1,58.881-12.573C412.422,225.118,371.216,244.354,371.216,244.354Z" transform="translate(-26.531 -94.96)"/><path class="cls-4" d="M349.571,131.005a24.489,24.489,0,1,1,3.256,27.65,11.083,11.083,0,0,0-12.285-3.175l-1.131.434a10.922,10.922,0,0,0-4.547,17.173,47.514,47.514,0,1,0-5.656-52.824c-3.962,7.463,1.652,16.461,10.1,16.527h.248A11.19,11.19,0,0,0,349.571,131.005Z" transform="translate(-26.531 -94.96)"/></svg>