<svg id="Layer_1" data-name="Layer 1" xmlns="http://www.w3.org/2000/svg" xmlns:xlink="http://www.w3.org/1999/xlink" viewBox="0 0 2916.721 2781.64"><defs><style>.cls-1,.cls-3,.cls-5{fill:#825ef6;}.cls-1{clip-rule:evenodd;}.cls-2{fill:#fff;}.cls-3{fill-rule:evenodd;}.cls-4{clip-path:url(#clip-path);}</style><clipPath id="clip-path" transform="translate(-621.64 -609.18)"><path id="SVGID" class="cls-1" d="M1235.579,2079.065a669.189,669.189,0,1,0,334.478-579.884,669.2,669.2,0,0,0-334.478,579.884"/></clipPath></defs><path class="cls-2" d="M3134.419,2586.963c.635,163.656,232.323,166.038,232.513.62C3366.544,2422.11,3135.322,2421.827,3134.419,2586.963Z" transform="translate(-621.64 -609.18)"/><path class="cls-2" d="M3162.83,2606.811c172.436,130.921,351.31,187.861,375.353,355.105,7.022,107.372-195.7,434.466-334.885,413.972q-69.934.011-213.422-99.345c-34.071-22.052-196.292-135.1-235.5-158.23C1638.749,3967.23,193.466,2671.611,741.579,1442.149,1526.691-264.95,3911.318,917.233,3162.83,2606.811Z" transform="translate(-621.64 -609.18)"/><path id="SVGID-2" data-name="SVGID" class="cls-3" d="M1235.579,2079.065a669.189,669.189,0,1,0,334.478-579.884,669.2,669.2,0,0,0-334.478,579.884" transform="translate(-621.64 -609.18)"/><g class="cls-4"><rect class="cls-5" x="613.709" y="770.367" width="1338.827" height="1399.265"/></g></svg>